<?xml version="1.0" encoding="UTF-8"?>
<svg id="Layer_2" data-name="Layer 2" xmlns="http://www.w3.org/2000/svg" viewBox="0 0 418.12 60.32">
  <g id="Layer_1-2" data-name="Layer 1">
    <g>
      <g id="SvgjsG1834">
        <path d="m33.68,5.88c0,3.24-2.63,5.88-5.87,5.88s-5.88-2.63-5.88-5.88S24.57,0,27.81,0s5.87,2.63,5.87,5.88Zm-5.87,47.39c-1.95,0-3.53,1.58-3.53,3.53s1.58,3.53,3.53,3.53,3.53-1.58,3.53-3.53-1.58-3.53-3.53-3.53ZM15.86,10.64c.75-.43,1.01-1.39.57-2.14-.43-.75-1.39-1.01-2.14-.57-.75.43-1.01,1.39-.57,2.14.43.75,1.39,1.01,2.14.57Zm22.72,39.35c-1.87,1.08-2.51,3.48-1.43,5.35,1.08,1.87,3.48,2.51,5.35,1.43,1.87-1.08,2.52-3.48,1.44-5.35-1.09-1.87-3.48-2.51-5.36-1.43ZM4.78,20.3c.93.54,2.13.22,2.67-.72.54-.94.22-2.13-.72-2.68-.94-.54-2.13-.22-2.68.72-.54.94-.22,2.13.72,2.67Zm47.23,20.04c-2.06-1.19-4.7-.49-5.88,1.58-1.19,2.06-.49,4.69,1.58,5.88,2.06,1.19,4.7.49,5.88-1.58s.48-4.69-1.58-5.88ZM4.7,31.34c0-1.3-1.05-2.35-2.35-2.35s-2.35,1.05-2.35,2.35,1.05,2.35,2.35,2.35c1.3,0,2.35-1.05,2.35-2.35Zm48.57-4.7c-2.59,0-4.7,2.11-4.7,4.7s2.1,4.7,4.7,4.7,4.71-2.11,4.71-4.7c0-2.6-2.11-4.7-4.71-4.7ZM4.39,41.69c-1.31.76-1.76,2.44-1.01,3.74.76,1.31,2.44,1.76,3.74,1,1.31-.75,1.76-2.43,1-3.74-.76-1.31-2.43-1.76-3.74-1.01Zm48.01-18.68c2.44-1.4,3.27-4.52,1.87-6.95-1.42-2.43-4.52-3.27-6.96-1.86-2.43,1.4-3.27,4.52-1.86,6.95s4.52,3.27,6.95,1.86Zm-35.76,27.66c-1.5-.87-3.42-.36-4.28,1.15-.86,1.5-.35,3.42,1.15,4.28,1.5.86,3.42.35,4.28-1.14.86-1.5.35-3.42-1.15-4.28ZM43.28,4.54c-2.63-1.51-5.98-.61-7.49,2.01-1.51,2.62-.62,5.98,2,7.49,2.62,1.51,5.98.61,7.49-2.01,1.51-2.62.61-5.97-2-7.49Zm-13.52,27.93V15.67h-3.92v14.54l-12.59,7.27,1.96,3.39,14.55-8.4Z" fill="#06b6d4" stroke-width="0"/>
      </g>
      <g id="SvgjsG1835">
        <path d="m89.25,9.53h7.68v34.38h-7.68v-2.53c-.34.88-2.63,3.01-6.52,3.01-5.79,0-12.45-4.13-12.45-13.18s6.66-13.03,12.45-13.03c3.89,0,6.18,2.24,6.52,2.77,0,0,0-11.43,0-11.43Zm-5.4,28.11c3.16,0,5.74-2.19,5.74-6.42s-2.58-6.27-5.74-6.27-6.13,2.24-6.13,6.27,2.82,6.42,6.13,6.42Zm36.23-19.01h7.68v25.29h-7.68v-2.53c-.34.88-2.63,3.01-6.52,3.01-5.79,0-12.45-4.13-12.45-13.18s6.66-13.03,12.45-13.03c3.89,0,6.18,2.24,6.52,2.77,0,0,0-2.33,0-2.33Zm-5.4,19.01c3.16,0,5.74-2.19,5.74-6.42s-2.58-6.27-5.74-6.27-6.13,2.24-6.13,6.27,2.82,6.42,6.13,6.42Zm38.56-19.11h7.63l-15.46,34.62h-7.68l4.67-10.11-10.94-24.51h7.63l7.1,16.24,7.05-16.24Zm21.4,8.07c-.68-1.75-1.7-2.33-2.82-2.33-1.02,0-2.04.58-2.04,1.56s.58,1.46,1.7,1.85l3.21,1.12c3.6,1.31,7.25,2.63,7.25,7.68s-5.11,8.02-10.36,8.02c-4.72,0-9.14-2.77-10.21-7.2l6.03-1.9c.63,1.41,1.75,3.01,4.18,3.01,1.65,0,2.72-1.07,2.72-2.04,0-.49-.39-1.12-1.6-1.6l-2.97-1.07c-5.06-1.85-7.44-4.43-7.44-8.02,0-4.72,4.38-7.49,9.19-7.49s8.17,2.67,9.63,6.71l-6.47,1.7Zm37.83,0c-.68-1.75-1.7-2.33-2.82-2.33-1.02,0-2.04.58-2.04,1.56s.58,1.46,1.7,1.85l3.21,1.12c3.6,1.31,7.25,2.63,7.25,7.68s-5.11,8.02-10.36,8.02c-4.72,0-9.14-2.77-10.21-7.2l6.03-1.9c.63,1.41,1.75,3.01,4.18,3.01,1.65,0,2.72-1.07,2.72-2.04,0-.49-.39-1.12-1.6-1.6l-2.97-1.07c-5.06-1.85-7.44-4.43-7.44-8.02,0-4.72,4.38-7.49,9.19-7.49s8.17,2.67,9.63,6.71l-6.47,1.7Zm18.92-17.07v6.47h-7.68v-6.47s7.68,0,7.68,0Zm0,9.09v25.29h-7.68v-25.29h7.68Zm20.47-.39c4.72,0,9.53,3.16,9.53,11.18v14.49h-7.68v-13.96c0-3.84-1.31-5.06-3.74-5.06-3.45,0-5.45,3.36-5.93,4.81v14.2h-7.68v-25.29h7.68v4.38c.49-1.22,3.06-4.77,7.83-4.77h0Zm26.65-.05c4.62,0,8.51,1.95,10.89,6.03l-5.84,2.77c-1.26-1.07-2.29-2.04-4.96-2.04-2.92,0-5.88,2.24-5.88,6.37s2.97,6.22,5.88,6.22c2.67,0,3.7-.88,4.96-1.95l5.93,2.77c-2.48,4.08-6.27,5.93-10.99,5.93-5.64,0-13.23-4.04-13.23-12.98s7.59-13.13,13.23-13.13h0Zm26.06,0c5.74,0,13.76,4.33,12.16,15.76h-17.65c.88,2.63,3.16,3.99,6.22,3.99s4.08-.68,5.84-1.41l4.23,4.08c-2.24,2.19-5.25,3.79-10.36,3.79-6.27,0-13.76-4.33-13.76-13.03s7.59-13.18,13.32-13.18h0Zm0,6.56c-2.19,0-4.43,1.26-5.4,3.79h10.75c-.78-2.53-3.16-3.79-5.35-3.79Zm38.81-15.22v34.38h-7.68V9.53s7.68,0,7.68,0Zm23.15,9.09h7.68v25.29h-7.68v-2.53c-.34.88-2.63,3.01-6.52,3.01-5.79,0-12.45-4.13-12.45-13.18s6.66-13.03,12.45-13.03c3.89,0,6.18,2.24,6.52,2.77,0,0,0-2.33,0-2.33Zm-5.4,19.01c3.16,0,5.74-2.19,5.74-6.42s-2.58-6.27-5.74-6.27-6.13,2.24-6.13,6.27,2.82,6.42,6.13,6.42Zm30.05-11.04c-.68-1.75-1.7-2.33-2.82-2.33-1.02,0-2.04.58-2.04,1.56s.58,1.46,1.7,1.85l3.21,1.12c3.6,1.31,7.25,2.63,7.25,7.68s-5.11,8.02-10.36,8.02c-4.72,0-9.14-2.77-10.21-7.2l6.03-1.9c.63,1.41,1.75,3.01,4.18,3.01,1.65,0,2.72-1.07,2.72-2.04,0-.49-.39-1.12-1.6-1.6l-2.97-1.07c-5.06-1.85-7.44-4.43-7.44-8.02,0-4.72,4.38-7.49,9.19-7.49s8.17,2.67,9.63,6.71l-6.47,1.7Zm23.54,10.89c1.36,0,2.33-.19,3.4-.49v6.37c-1.07.49-2.82.83-5.4.83-4.23,0-7.78-1.41-7.78-9.19v-10.07h-3.55v-6.32h3.55v-5.93h7.68v5.93h5.4v6.32h-5.4v10.07c0,1.12.29,2.48,2.09,2.48Z" fill="#fff" stroke-width="0"/>
      </g>
    </g>
  </g>
</svg>